<svg xmlns="http://www.w3.org/2000/svg" viewBox="0 0 200 196.61"><defs><style>.cls-1{fill:#fefdfc;}.cls-2{fill:#f5d0ae;}.cls-3{fill:#3f755d;}.cls-4{fill:#e7aa71;}</style></defs><g id="Layer_2" data-name="Layer 2"><g id="Layer_1-2" data-name="Layer 1"><path class="cls-1" d="M200,196.61H0V0H200ZM54.43,160.85c.3,0,.42.19.61.33,1.29,1,2.54,2,3.88,2.85a44.37,44.37,0,0,0,9,4.83,62.35,62.35,0,0,0,7.76,2.56c2,.44,4,.86,6,1.17a48.06,48.06,0,0,0,6.57.76,122.52,122.52,0,0,0,18-.91c4.49-.61,9-1.34,13.38-2.29a145.86,145.86,0,0,0,15-4.24,31.07,31.07,0,0,0,7.75-3.49c2.83-1.9,5.65-3.8,8.34-5.9A49.47,49.47,0,0,0,156,152a92,92,0,0,0,7.44-8.68,76.14,76.14,0,0,0,7.22-11.74,74.85,74.85,0,0,0,6-17.35,60.62,60.62,0,0,0,1.48-11.67,77.84,77.84,0,0,0-1.1-18,88.13,88.13,0,0,0-2.93-10.91A78.53,78.53,0,0,0,169.54,63a84.37,84.37,0,0,0-5.48-9.72,51.22,51.22,0,0,0-5.59-6.59,56,56,0,0,0-9.14-7.37c-2-1.29-3.93-2.67-6-3.79-1.55-.82-3.05-1.75-4.6-2.57-2.41-1.27-4.83-2.5-7.26-3.71a25.16,25.16,0,0,0-4.37-2c-2.77-.77-5.53-1.57-8.36-2.19a77.71,77.71,0,0,0-13.49-1.5,47.38,47.38,0,0,0-6.94.15c-3.85.4-7.72.49-11.52,1.44-2.13.53-4.26,1-6.37,1.6a65.2,65.2,0,0,0-10.46,4.18,77.94,77.94,0,0,0-10.37,6.18A94.27,94.27,0,0,0,49.11,46,60.49,60.49,0,0,0,44,51.6c-1.77,2.17-3.55,4.35-5.11,6.66a78.3,78.3,0,0,0-5.1,8.66,48.61,48.61,0,0,0-2.63,5.38c-.71,2-1.5,4-2.27,6a74.13,74.13,0,0,0-2.61,9.34,51.06,51.06,0,0,0-1.57,12c0,1.1-.42,1.27-1.31.64a1.68,1.68,0,0,0-1.72-.15c-.54.25-.36.86-.33,1.32a4.76,4.76,0,0,0,.27,1.16c.23.79.76,1.54.06,2.38-.24.29,0,.63.32.82.73.54.54,1.17.19,1.81-.1.19-.42.36-.15.59a2,2,0,0,0,1.48.29c.31,0,.18-.54.17-.85s-.15-.38-.16-.57a1.42,1.42,0,0,1,1-1.45c.66-.15.64.65.67,1.14a12.68,12.68,0,0,0,1.22,4,30.3,30.3,0,0,0,4.33,7.73c.61.75.33,1.4-.67,1.6a1.06,1.06,0,0,0-1,1.14,19.92,19.92,0,0,0,.95,6.52,29.93,29.93,0,0,0,3.32,7.43c1.25,1.85,2.26,3.88,3.6,5.65,2.52,3.34,4.81,6.82,7.11,10.31.18.28.39.6.22.88-.4.7,0,1.19.4,1.62a44.35,44.35,0,0,0,8.45,7.8C54.25,162.2,54.37,162.13,54.43,160.85Zm56.94,17.66c.3-2.57-2.52-5.25-5-5.1-3,.19-4.92,1.89-5.11,5a5.18,5.18,0,0,0,5.12,5.12C109,183.56,111.75,180.93,111.37,178.51ZM64.18,25.63A1.62,1.62,0,0,0,66.07,24,2.11,2.11,0,0,0,64,21.61c-.92-.12-1.9,1-1.93,2.05A2.18,2.18,0,0,0,64.18,25.63Zm32.67,152c0-1.29-.6-2-1.77-2A2.24,2.24,0,0,0,93,177.39a2.22,2.22,0,0,0,2,2C96.26,179.42,96.84,178.86,96.85,177.61Z"/><path class="cls-2" d="M54.43,160.85c-.06,1.28-.18,1.35-1.29.61a44.35,44.35,0,0,1-8.45-7.8c-.37-.43-.8-.92-.4-1.62.17-.28,0-.6-.22-.88-2.3-3.49-4.59-7-7.11-10.31-1.34-1.77-2.35-3.8-3.6-5.65A29.93,29.93,0,0,1,30,127.77a19.92,19.92,0,0,1-.95-6.52,1.06,1.06,0,0,1,1-1.14c1-.2,1.28-.85.67-1.6a30.3,30.3,0,0,1-4.33-7.73,12.68,12.68,0,0,1-1.22-4c0-.49,0-1.29-.67-1.14a1.42,1.42,0,0,0-1,1.45c0,.19.15.38.16.57s.14.85-.17.85a2,2,0,0,1-1.48-.29c-.27-.23,0-.4.15-.59.35-.64.54-1.27-.19-1.81-.27-.19-.56-.53-.32-.82.7-.84.17-1.59-.06-2.38a4.76,4.76,0,0,1-.27-1.16c0-.46-.21-1.07.33-1.32a1.68,1.68,0,0,1,1.72.15c.89.63,1.3.46,1.31-.64a51.06,51.06,0,0,1,1.57-12,74.13,74.13,0,0,1,2.61-9.34c.77-2,1.56-4,2.27-6a48.61,48.61,0,0,1,2.63-5.38,78.3,78.3,0,0,1,5.1-8.66C40.44,56,42.22,53.77,44,51.6A60.49,60.49,0,0,1,49.11,46a94.27,94.27,0,0,1,10.45-8.9,77.94,77.94,0,0,1,10.37-6.18,65.2,65.2,0,0,1,10.46-4.18c2.11-.64,4.24-1.07,6.37-1.6,3.8-.95,7.67-1,11.52-1.44a47.38,47.38,0,0,1,6.94-.15A77.71,77.71,0,0,1,118.71,25c2.83.62,5.59,1.42,8.36,2.19a25.16,25.16,0,0,1,4.37,2c2.43,1.21,4.85,2.44,7.26,3.71,1.55.82,3.05,1.75,4.6,2.57,2.1,1.12,4,2.5,6,3.79a56,56,0,0,1,9.14,7.37,51.22,51.22,0,0,1,5.59,6.59A84.37,84.37,0,0,1,169.54,63a78.53,78.53,0,0,1,4.59,10.63,88.13,88.13,0,0,1,2.93,10.91,77.84,77.84,0,0,1,1.1,18,60.62,60.62,0,0,1-1.48,11.67,74.85,74.85,0,0,1-6,17.35,76.14,76.14,0,0,1-7.22,11.74A92,92,0,0,1,156,152a49.47,49.47,0,0,1-5.13,4.55c-2.69,2.1-5.51,4-8.34,5.9a31.07,31.07,0,0,1-7.75,3.49,145.86,145.86,0,0,1-15,4.24c-4.43.95-8.89,1.68-13.38,2.29a122.52,122.52,0,0,1-18,.91,48.06,48.06,0,0,1-6.57-.76c-2-.31-4-.73-6-1.17A62.35,62.35,0,0,1,68,168.86a44.37,44.37,0,0,1-9-4.83c-1.34-.87-2.59-1.89-3.88-2.85C54.85,161,54.73,160.8,54.43,160.85ZM146.49,42.62a.36.36,0,0,0,0-.09h-.06l.1.09a2.53,2.53,0,0,0,.8.89c1.29,1.13,2.63,2.22,3.86,3.42,1.84,1.79,3.53,3.72,5.23,5.65A72.88,72.88,0,0,1,163,60.85,45.18,45.18,0,0,1,167.44,70c1.49,4,2,8.34,2.94,12.52.09.4.24,1-.49,1-.54,0-1.06-.1-1.12-.81a56,56,0,0,0-.73-6.33,12.78,12.78,0,0,0-1.34-4.28,113.8,113.8,0,0,1,1.37,17.57,70.21,70.21,0,0,1-1.72,17.65c-.13-.31-.21-.41-.21-.51a61.76,61.76,0,0,0-1-8.47,32.19,32.19,0,0,1-.73-6.91c.12-3.26.37-6.52.28-9.78a34.31,34.31,0,0,0-1.61-9.22,48.55,48.55,0,0,0-2.93-7.09,39.71,39.71,0,0,0-4.49-7.09A63.1,63.1,0,0,0,146,47.82c-1.61-1.31-3.29-2.55-4.92-3.84-1.81-1.44-4.07-2-6.09-3a82.92,82.92,0,0,0-9.17-3.58c-.86-.32-1.84-.34-2.67-.7a71.75,71.75,0,0,0-10.12-3,9.1,9.1,0,0,1-2.4-1.09A9.54,9.54,0,0,0,105.91,31c-3.76-.16-7.2,1-10.69,2.14A35.08,35.08,0,0,1,89,35c-1.27.16-2.54.33-3.82.46a48.64,48.64,0,0,0-9.3,2.38,20,20,0,0,0-3.79,1.48,98.28,98.28,0,0,0-9.94,6.46c-2.27,1.64-4.52,3.33-6.65,5.14a55.52,55.52,0,0,0-7,7,80.65,80.65,0,0,0-6.16,8.87,47.71,47.71,0,0,0-3.08,5.83,63.37,63.37,0,0,0-2.79,6.64c-.64,2-1.33,4-1.83,6.11-.55,2.26-1.12,4.51-1.5,6.8-.31,1.82-.39,3.67-.64,5.49a11.07,11.07,0,0,0,.06,4.93c1.13,3.37,3.32,6.16,5.57,8.87,1,1.16,2.31,2,2.74,3.58-1-.06-1.13.17-.88,1.07,0,.15.14.29.19.44a69.16,69.16,0,0,0,5,10.64,51.64,51.64,0,0,0,4.94,7.64c1.32,1.65,2.56,3.37,3.82,5.07,1,1.27,1.89,2.54,2.93,3.74.23.26.49,1,1,.4s.76-.26,1.16.07a44.54,44.54,0,0,0,3.75,3,27.45,27.45,0,0,0,3.63,1.84c.51.24,1.2.28,1.38-.36s.55-.54,1-.32c1.24.65,2.45,1.36,3.71,2,4.17,2,8.19,4.23,12.29,6.32s8.62,3.3,12.77,5.3c1.21.59,2.45.22,3.73.82,2.75,1.29,5.85,1.6,8.87,2.07,1.85.28,3.72,0,5.53.3a21.87,21.87,0,0,0,7.54-.48,39.48,39.48,0,0,0,14.16-5.69c.21-.13.48-.25.32-.53s-.37-.14-.55,0c-1.07.63-2.29,1-3.35,1.58-1.61.9-3.36,1.42-5,2.16-2.4,1.06-5,1.28-7.6,1.7-1.14.18-2.28.32-3.42.47a59.06,59.06,0,0,1,5.78-2.32c3.39-1.21,6.88-2.14,10.17-3.66a58.32,58.32,0,0,0,9.53-5.54,53.06,53.06,0,0,0,7.73-6.86,54.41,54.41,0,0,0,8.45-11.35,82.13,82.13,0,0,0,4.3-8.73,97.5,97.5,0,0,0,4.43-13.1c.7-2.91,1.5-5.8,2.11-8.73.32-1.56.4-3.17.76-4.74s.4-3.21.89-4.8c.13.1.23.14.24.19a4,4,0,0,1,0,.6,67.14,67.14,0,0,1-1.38,17.14,63.27,63.27,0,0,1-2.26,8.33,70.78,70.78,0,0,1-4.46,10c-.8,1.38-1.38,3-2.48,4.06-.89.88-.63,2-1.58,2.79.55,0,.66-.14.77-.3,2.08-3.17,4.39-6.18,6.17-9.56a67.6,67.6,0,0,0,3.52-7.46,69.53,69.53,0,0,0,4-14.35c.44-2.94.59-5.9.83-8.85a34.81,34.81,0,0,0-.24-4.09A45.12,45.12,0,0,0,174,84.94a62.3,62.3,0,0,0-2.25-8c-1.37-3.8-2.65-7.64-4.09-11.42a43,43,0,0,0-9.78-14.6,55,55,0,0,0-9.09-7.29C148.07,43.21,147.44,42.52,146.49,42.62ZM92.94,29.82c1,.51,1.9.07,2.72-.05,1.8-.25,3.6-.2,5.39-.38a21.16,21.16,0,0,1,7.32.3c2.9.74,5.86,1.23,8.73,2.17,1.31.43,2.7.73,4,1.14.48.15,1.15.67,1.42.26s-.3-1.06-.63-1.54a1.28,1.28,0,0,0-.26-.26c-2.45-2-5-3.79-8.23-4.15a42.83,42.83,0,0,0-9.93,0,50,50,0,0,0-6.25,1.06A12.29,12.29,0,0,0,92.94,29.82Z"/><path class="cls-2" d="M111.37,178.51c.38,2.42-2.42,5.05-5,5.06a5.18,5.18,0,0,1-5.12-5.12c.19-3.15,2.14-4.85,5.11-5C108.85,173.26,111.67,175.94,111.37,178.51Z"/><path class="cls-2" d="M64.18,25.63a2.18,2.18,0,0,1-2.16-2c0-1,1-2.17,1.93-2.05A2.11,2.11,0,0,1,66.07,24,1.62,1.62,0,0,1,64.18,25.63Z"/><path class="cls-2" d="M96.85,177.61c0,1.25-.59,1.81-1.84,1.79a2.22,2.22,0,0,1-2-2,2.24,2.24,0,0,1,2.06-1.82C96.25,175.61,96.87,176.32,96.85,177.61Z"/><path class="cls-1" d="M146.49,42.62c.95-.1,1.58.59,2.25,1a55,55,0,0,1,9.09,7.29,43,43,0,0,1,9.78,14.6c1.44,3.78,2.72,7.62,4.09,11.42a62.3,62.3,0,0,1,2.25,8,45.12,45.12,0,0,1,1.11,7.85,34.81,34.81,0,0,1,.24,4.09c-.24,3-.39,5.91-.83,8.85a69.53,69.53,0,0,1-4,14.35,67.6,67.6,0,0,1-3.52,7.46c-1.78,3.38-4.09,6.39-6.17,9.56-.11.16-.22.34-.77.3.95-.79.69-1.91,1.58-2.79,1.1-1.08,1.68-2.68,2.48-4.06a70.78,70.78,0,0,0,4.46-10,63.27,63.27,0,0,0,2.26-8.33,67.14,67.14,0,0,0,1.38-17.14,4,4,0,0,0,0-.6s-.11-.09-.24-.19c-.49,1.59-.53,3.23-.89,4.8s-.44,3.18-.76,4.74c-.61,2.93-1.41,5.82-2.11,8.73a97.5,97.5,0,0,1-4.43,13.1,82.13,82.13,0,0,1-4.3,8.73,54.41,54.41,0,0,1-8.45,11.35,53.06,53.06,0,0,1-7.73,6.86,58.32,58.32,0,0,1-9.53,5.54c-3.29,1.52-6.78,2.45-10.17,3.66a59.06,59.06,0,0,0-5.78,2.32c1.14-.15,2.28-.29,3.42-.47,2.57-.42,5.2-.64,7.6-1.7,1.67-.74,3.42-1.26,5-2.16,1.06-.6,2.28-1,3.35-1.58.18-.1.43-.17.55,0s-.11.4-.32.53a39.48,39.48,0,0,1-14.16,5.69,21.87,21.87,0,0,1-7.54.48c-1.81-.3-3.68,0-5.53-.3-3-.47-6.12-.78-8.87-2.07-1.28-.6-2.52-.23-3.73-.82-4.15-2-8.63-3.19-12.77-5.3s-8.12-4.35-12.29-6.32c-1.26-.6-2.47-1.31-3.71-2-.41-.22-.75-.43-1,.32s-.87.6-1.38.36A27.45,27.45,0,0,1,62.75,147a44.54,44.54,0,0,1-3.75-3c-.4-.33-.65-.67-1.16-.07s-.75-.14-1-.4c-1-1.2-2-2.47-2.93-3.74-1.26-1.7-2.5-3.42-3.82-5.07a51.64,51.64,0,0,1-4.94-7.64,69.16,69.16,0,0,1-5-10.64c0-.15-.15-.29-.19-.44-.25-.9-.07-1.13.88-1.07-.43-1.56-1.78-2.42-2.74-3.58-2.25-2.71-4.44-5.5-5.57-8.87a11.07,11.07,0,0,1-.06-4.93c.25-1.82.33-3.67.64-5.49.38-2.29,1-4.54,1.5-6.8.5-2.07,1.19-4.08,1.83-6.11a63.37,63.37,0,0,1,2.79-6.64,47.71,47.71,0,0,1,3.08-5.83,80.65,80.65,0,0,1,6.16-8.87,55.52,55.52,0,0,1,7-7c2.13-1.81,4.38-3.5,6.65-5.14a98.28,98.28,0,0,1,9.94-6.46,20,20,0,0,1,3.79-1.48,48.64,48.64,0,0,1,9.3-2.38c1.28-.13,2.55-.3,3.82-.46a35.08,35.08,0,0,0,6.19-1.88c3.49-1.1,6.93-2.3,10.69-2.14a9.54,9.54,0,0,1,4.71,1.57,9.1,9.1,0,0,0,2.4,1.09,71.75,71.75,0,0,1,10.12,3c.83.36,1.81.38,2.67.7A82.92,82.92,0,0,1,135,40.94c2,1,4.28,1.6,6.09,3,1.63,1.29,3.31,2.53,4.92,3.84a63.1,63.1,0,0,1,9.66,10.41,39.71,39.71,0,0,1,4.49,7.09,48.55,48.55,0,0,1,2.93,7.09,34.31,34.31,0,0,1,1.61,9.22c.09,3.26-.16,6.52-.28,9.78a32.19,32.19,0,0,0,.73,6.91,61.76,61.76,0,0,1,1,8.47c0,.1.08.2.21.51a70.21,70.21,0,0,0,1.72-17.65,113.8,113.8,0,0,0-1.37-17.57A12.78,12.78,0,0,1,168,76.36a56,56,0,0,1,.73,6.33c.06.71.58.81,1.12.81.73,0,.58-.57.49-1-1-4.18-1.45-8.49-2.94-12.52A45.18,45.18,0,0,0,163,60.85a72.88,72.88,0,0,0-6.58-8.28c-1.7-1.93-3.39-3.86-5.23-5.65-1.23-1.2-2.57-2.29-3.86-3.42a2.53,2.53,0,0,1-.8-.89Zm-15.92,81.94.07.08c-.16.56-.06,1.17-.48,1.67a.51.51,0,0,0,.19.8l-.33.73-.19.28c-.14.37-.31.74-.42,1.13a1.69,1.69,0,0,0,.43,1.88,1.76,1.76,0,0,0,2,.28,4.51,4.51,0,0,0,2-1.68c.21-.3.66-.64.24-1s-.74,0-1.1.19-.77.78-1.26.35-.11-1,.1-1.52a12.09,12.09,0,0,0,1.34-3.72c.11-1.53-.82-2.35-2.29-1.88a6.89,6.89,0,0,0-3.26,2.39c-.33.43-.57,1-1.24,1.17-.16-1.12.47-2,.7-2.93.12-.5.27-.92-.37-1.19s-.81.23-1,.59a31.85,31.85,0,0,0-2.49,8.38,1.93,1.93,0,0,0,0,.24.81.81,0,0,0,.8.88.85.85,0,0,0,1.06-.52,41.17,41.17,0,0,1,2.74-5.22c.82,0,1.48-.22,1.4-1.25l.53-.25C130,124.73,130.27,124.68,130.57,124.56ZM89.12,101.79a.91.91,0,0,1-.74,0A16,16,0,0,1,89.16,99c.09-.36.14-.59-.3-.74s-.68-.27-.9.2c-.07.15-.16.28-.23.43a40,40,0,0,0-2.47,8.3.58.58,0,0,0,.42.74c.75.34,1.23.35,1.62-.59a17.56,17.56,0,0,1,3.26-5.61c.55-.59,1.25-1.22,2.09-.62s.24,1.33,0,2c-.34.9-.87,1.71-1.16,2.65a1.68,1.68,0,0,0,.44,2,1.86,1.86,0,0,0,2,.14,4.35,4.35,0,0,0,1.7-1.33c.27-.35.82-.79.49-1.2-.53-.64-.87.14-1.27.38l-.2.15a.76.76,0,0,1-.89.14.75.75,0,0,1-.29-1c.22-.65.51-1.27.78-1.9a9.31,9.31,0,0,0,.88-2.36c.24-1.68-.6-2.42-2.26-2a4.33,4.33,0,0,0-2,1.13C90.31,100.48,89.73,101.15,89.12,101.79Zm67,28.91c.23-.76.23-.76-1.5-.5-.18-.46.08-.87.19-1.28.32-1.16.73-2.3,1-3.46.13-.49.3-1.1-.34-1.38s-.91.27-1.22.69a12.68,12.68,0,0,1-3.47,3.57c-1.12.68-2.13.21-2.18-1.11a5.05,5.05,0,0,1,1-3.28,2.39,2.39,0,0,0,.43-.84c.13-.52.19-.92-.46-1.14s-.94-.13-1.2.42a24.35,24.35,0,0,0-2,4.92c-.63,2.88.72,4.11,3.55,3.27a5.25,5.25,0,0,0,2.55-1.9c.15-.19.29-.46.57-.35s.16.4.13.63a2.87,2.87,0,0,1-2.16,2.71,9.94,9.94,0,0,0-3.05,1.69,5.33,5.33,0,0,0-2.47,5.16,1.94,1.94,0,0,0,1.83,1.89c2.13.37,3.38-.79,4.47-2.37,1.28-1.86,1.55-4,2.09-6.13C155.45,132.36,155.74,132.19,156.08,130.7Zm-48.15-23.44a1.53,1.53,0,0,0-1.29-.05c-.82.28-1-.14-.74-.79a21.11,21.11,0,0,1,1.31-3.75c.27-.46.42-1-.18-1.36s-.94.09-1.27.47c-.08.09-.12.21-.2.31a12.64,12.64,0,0,1-3.21,3.23c-.52.31-1.1.62-1.65.07a1.3,1.3,0,0,1-.21-1.75,8.17,8.17,0,0,1,1.66-2,7.42,7.42,0,0,1,4.09-1.9c.32,0,.69-.09.6-.56s-.25-.69-.7-.69a4.09,4.09,0,0,0-.6.07,10,10,0,0,0-5.25,2.47,6.38,6.38,0,0,0-2.59,4.72A2.07,2.07,0,0,0,99.8,108a4.47,4.47,0,0,0,3-1,5.86,5.86,0,0,1,1.64-1.16c0,1.67-.43,2.41-1.81,2.9a11.63,11.63,0,0,0-2.76,1.48,6.49,6.49,0,0,0-2.82,3.65,3.16,3.16,0,0,0,.26,3c.81,1,2,.94,3.12.66a4.52,4.52,0,0,0,2.65-2,15.36,15.36,0,0,0,2.18-6c.1-.46.18-1,.71-1,.86,0,1.35-.66,2-1,1,1.33,2.06,1.43,3.18.26a3.91,3.91,0,0,0,.68-.85c.19-.34.8-.64.31-1.12s-.66.21-.93.4-.7.46-1.11.27-.45-.63-.44-1a10.07,10.07,0,0,1,.64-3.07,98.89,98.89,0,0,1,5.24-11.94c.21-.44.62-.86-.15-1.27s-.89.1-1.14.57a91.55,91.55,0,0,0-6,14.11A5.45,5.45,0,0,0,107.93,107.26Zm41.71,33.9c-1.22.4-2.45.78-3.66,1.2s-2.58.88-3.85,1.36c-4,1.51-7.23,4.15-10.49,6.72s-6.72,4.91-10.19,7.21c-.38.25-1.07.16-1.12.9a22.31,22.31,0,0,0,3.38-.89c2.13-.91,4.3-1.74,6.43-2.66a69.19,69.19,0,0,0,10.45-5.89c2.29-1.5,4.29-3.37,6.44-5.05a7.28,7.28,0,0,0,2.6-2.9c.08-.07.31.09.25-.17ZM108.21,78a5.09,5.09,0,0,1,1.22-2.81c1.14-1.18,2.3-2.34,3.53-3.43a9.16,9.16,0,0,0,2.9-8.94,13.05,13.05,0,0,0-3.21-6.38,9.79,9.79,0,0,0-5.55-3.55,17.24,17.24,0,0,0-4.06,0,12.28,12.28,0,0,0-6,1.85,10.58,10.58,0,0,0-4.3,4.85C91,63.64,91.2,67.44,93.94,71a29.1,29.1,0,0,1,3,4.78c.4.8.27,1.77,1,2.43a3,3,0,0,0-1.24,2.84c.08,1.16.23,2.32.28,3.49a3.89,3.89,0,0,0,2.56,3.74c.41.17.71.34.65.86-.1.9.51,1.21,1.23,1.35a6.3,6.3,0,0,0,3.22-.27,1.63,1.63,0,0,0,1.13-1,5.36,5.36,0,0,1,2.09-2.58,3,3,0,0,0,1.27-2.48c0-1.74-.11-3.47-.17-5.2C108.86,78.48,108.8,78,108.21,78Zm-35.9,28.3c-.6-1.39.37-3.24,1.7-4.11a13.63,13.63,0,0,1,2.91-1.45c.41-.14.92-.29.93-.82s-.48-.59-.83-.76c-.15-.07-.3-.13-.44-.21-1-.54-1.17-1.09-.72-2.08a4.82,4.82,0,0,1,4.27-2.88c.53,0,1.23-.2,1.41.56s-.33,1-.83,1.32a10.3,10.3,0,0,1-3.09,1c-.43.11-.65.29-.59.73s.43.57.81.53a10.19,10.19,0,0,0,5.89-2.22,2.32,2.32,0,0,0,.68-2.54,1.85,1.85,0,0,0-2-1.23A11.43,11.43,0,0,0,74,96c-.78.86-1.43,2.1-.81,3.21s.23,1.52-.72,1.91a3.73,3.73,0,0,0-1,.64c-1.76,1.51-2.76,3.57-1.78,5.77a2.38,2.38,0,0,1,.08,2.43c-.18.3-.42.76.07,1.08s.86,0,1.09-.4c.54-.85,1.22-.81,2.09-.59a10,10,0,0,0,9.59-3.57,3,3,0,0,0,.48-3.19c-.55-1.1-1.7-1.12-2.75-1.07a10.91,10.91,0,0,0-4.07,1.06A14.2,14.2,0,0,0,72.31,106.25Zm-4.17,34.19a3.28,3.28,0,0,0,2.71-1.29,10.08,10.08,0,0,0,2.55-5.38c.25-1.37.53-2.73,2.33-2.84.34,0,.53-.21.46-.56s-.31-.29-.56-.33c-1.19-.16-1.27-.29-.88-1.42a23.15,23.15,0,0,0,1-3.36c.08-.46.3-1-.38-1.2s-.85.18-1.16.58a16.78,16.78,0,0,1-3.1,3.52,1.71,1.71,0,0,1-2.13.2c-.68-.45-.58-1.17-.43-1.86a25,25,0,0,1,1.24-3.39c.17-.43.45-.77-.15-1.08s-1.07-.25-1.35.3c-1,1.9-2,3.82-2,6s1,2.78,3,2.43A5.2,5.2,0,0,0,72,129.14c.2-.19.41-.47.72-.29s.19.49.15.76a1.91,1.91,0,0,1-1.27,1.74,17.58,17.58,0,0,0-2.07,1,7.9,7.9,0,0,0-3.95,4C64.76,138.57,65.84,140.45,68.14,140.44Zm69.64-14.21c.08-.29.12-.43.17-.58a57,57,0,0,1,4.59-11c.48-.88.25-1.33-.63-1.35-.54,0-.63.44-.8.77a55.29,55.29,0,0,0-3,6.73c-1.17,3-2.32,6-3.26,9.07-.22.71-.3,1.21.67,1.53s1-.33,1.23-.82a21.13,21.13,0,0,1,2.64-4.59,5,5,0,0,1,2-1.55c.44-.18.87-.23,1.19.22s.15.91-.21,1.29a4.23,4.23,0,0,1-1.67.93c-1.63.67-1.81,1.19-.95,2.76.14.24.3.48.46.71,1.51,2.18,3.93,2,5.11-.45.13-.26.15-.44-.05-.63s-.43-.38-.74-.18-.38.3-.58.42c-.91.58-1.54.35-2.19-.62s-.22-1.3.62-1.7a4.07,4.07,0,0,0,2.52-2.28,1.84,1.84,0,0,0-2.21-2.55,5.72,5.72,0,0,0-2.47,1.21A26.78,26.78,0,0,0,137.78,126.23Zm-5-24a1.23,1.23,0,0,1,0-1.15A64.41,64.41,0,0,1,137,91.53c.23-.44.58-1-.11-1.34s-1-.21-1.38.55a108.93,108.93,0,0,0-4.41,10c-.69,1.79-1.19,3.67-1.7,5.53-.26,1,.13,1.48,1,1.58s.92-.66,1.18-1.15a15.07,15.07,0,0,1,3.28-4.55c.45-.4.88-.83,1.47-.44s.26.94.11,1.43a17.4,17.4,0,0,0-1,3.22c-.23,1.8.76,2.58,2.48,2a3.24,3.24,0,0,0,1.09-.74c.33-.32.7-.64.42-1.14s-.67-.13-1,0a.7.7,0,0,1-.89-.08.63.63,0,0,1-.13-.78,21.46,21.46,0,0,0,.84-2.24,6.38,6.38,0,0,0,.78-3.13c0-.65-.33-1.1-1-1.16a3.47,3.47,0,0,0-3.2,1C134.17,100.83,133.51,101.5,132.79,102.27ZM56,126.64l-.29-.09c0-1.28,0-2.56,0-3.84a21.16,21.16,0,0,0-1-6.41c-.37-1-1-.56-1.67-.46-.89.14-.56.68-.43,1.15a28.79,28.79,0,0,1,.83,10.65,28.15,28.15,0,0,0-.14,2.9c0,.9.58,1.25,1.45,1.2s.94-.69,1.18-1.22A33.1,33.1,0,0,1,65.42,118a.73.73,0,0,0,.18-1.19c-.37-.54-.72-.33-1.12-.08a21.84,21.84,0,0,0-5.07,4.62A36,36,0,0,0,56,126.64Zm50.44-.83a1.94,1.94,0,0,1,.25-1.34,90,90,0,0,1,4.08-9.41c.22-.42.67-.89-.12-1.29s-1,0-1.3.56c-.94,1.83-1.86,3.66-2.66,5.56a63.37,63.37,0,0,0-3.35,9.81c-.19.78.17,1,.73,1.24s.89,0,1.11-.56a15.65,15.65,0,0,1,.9-1.84c.86-1.4,1.68-2.85,3.23-3.63a1.19,1.19,0,0,1,1.37,0,1.37,1.37,0,0,1,.4,1.43,4.62,4.62,0,0,1-4.07,4.21.93.93,0,0,0-.81.91c0,.59.52.49.9.51a3.19,3.19,0,0,0,2-.36,8.19,8.19,0,0,0,4.28-7,1.88,1.88,0,0,0-2.53-2,6,6,0,0,0-2.93,1.81A4.92,4.92,0,0,1,106.39,125.81Zm10.71,5.72a5.66,5.66,0,0,0,3.3-1.32c.44-.33,1.25-.75.92-1.33-.44-.79-1,.05-1.53.23s-.89.35-1.35.51a1.45,1.45,0,0,1-1.35-.3c-.52-.38-.62-.69.1-1a16.39,16.39,0,0,0,3.55-1.78,5.72,5.72,0,0,0,2-2.08c.7-1.44,0-2.49-1.61-2.43a8.6,8.6,0,0,0-7,5.38C113.41,129.8,114.57,131.54,117.1,131.53Zm-20.37,0a5.7,5.7,0,0,0,4.17-1.84c.21-.23.72-.41.39-.86s-.7-.2-1.06,0a5.62,5.62,0,0,1-2,.83,1.31,1.31,0,0,1-1.52-.72c-.24-.69.58-.57.93-.77.84-.49,1.74-.85,2.58-1.32a6.13,6.13,0,0,0,2.16-1.89,2,2,0,0,0,.33-2.25c-.46-.78-1.29-.74-2-.61a8.55,8.55,0,0,0-6.33,4.7,3.83,3.83,0,0,0-.43,1.86A2.59,2.59,0,0,0,96.73,131.53ZM82.11,122c.68-1.44,1.27-2.63,1.81-3.83.13-.3.61-.67-.08-1-.51-.22-.88-.28-1.18.32-.58,1.19-1.26,2.34-1.8,3.55a2.31,2.31,0,0,1-2.11,1.65,5.51,5.51,0,0,0-1.16.3.69.69,0,0,0-.54,1c.18.62.56.22.87.2.5,0,1-.44,1.53-.13a15.86,15.86,0,0,0-1.32,5.36,1.84,1.84,0,0,0,2.06,2,4,4,0,0,0,3-1.68c.19-.24.29-.48.07-.75a.54.54,0,0,0-.84-.12,2.8,2.8,0,0,1-.41.25,1.25,1.25,0,0,1-1.47,0,1.28,1.28,0,0,1-.48-1.4c.11-.55.23-1.11.39-1.64.83-2.63.84-2.63,3.6-2.79.35,0,.73.1.75-.48s-.21-.83-.76-.84S82.89,122,82.11,122Zm6.82,2.71c-.29-.66.11-1.11,0-1.58s.24-1.19-.57-1.21-1.21.23-1.19,1.14a11.29,11.29,0,0,1-1.08,5.25,6.67,6.67,0,0,0-.86,1.83c-.11.69.25.94.77,1.16a.71.71,0,0,0,1.07-.41c.33-.73.66-1.46,1-2.19a9.26,9.26,0,0,1,2.14-3.31c.25-.21.5-.43.86-.25s.27.46.25.74c0,.12,0,.24,0,.36,0,.38,0,.77.42.9s.65-.25.85-.54a7.77,7.77,0,0,0,.69-1.13,2.16,2.16,0,0,0-.3-2.67c-.6-.46-1.83-.18-2.63.57A7,7,0,0,1,88.93,124.75Zm38.58-26.69-.91.06c-3.29.32-3.92,2.31-2.33,4.58a11.75,11.75,0,0,1,1.11,2,1.24,1.24,0,0,1-.46,1.6,1.17,1.17,0,0,1-1.55-.08,8.24,8.24,0,0,1-1-.86c-.48-.5-.87-.21-1.26.09s-.07.65.11.92a3.75,3.75,0,0,0,4.88,1.31,2.51,2.51,0,0,0,1.24-3.44c-.4-.87-.92-1.69-1.36-2.55-.57-1.1-.24-1.87,1-2.16a7.28,7.28,0,0,1,1.55-.15c.45,0,.79,0,.82-.61s-.41-.6-.79-.65S127.88,98.08,127.51,98.06Zm-11.47,10a3.57,3.57,0,0,0,3-1.45c.34-.46,1.27-1,.78-1.54s-1.06.24-1.55.55c-.3.19-.61.48-1,.24a.94.94,0,0,1-.37-1,6.3,6.3,0,0,1,.21-1,21.32,21.32,0,0,1,1.44-3.7c.23-.43.37-.87-.29-1.18s-.89-.08-1.12.45c-.54,1.24-1.16,2.46-1.62,3.74a7.54,7.54,0,0,0-.44,3.43C115.17,107.38,115.42,108.05,116,108.11ZM132,142.54a1.81,1.81,0,0,0-1.73-2,2.16,2.16,0,0,0-2.1,2.05,1.93,1.93,0,0,0,1.78,1.74C131.28,144.31,131.92,143.76,132,142.54ZM118.2,96.48a1.2,1.2,0,0,0,1.41,1.23,1.67,1.67,0,0,0,1.33-1.46,1.36,1.36,0,0,0-1.52-1.33C118.57,95,118.17,95.47,118.2,96.48ZM96.56,45.73c-.5.07-.43.43-.37.81.25,1.61,1.16,3,1.54,4.55a.4.4,0,0,0,.54.33.46.46,0,0,0,.32-.57,2.22,2.22,0,0,0-.13-.58,17.47,17.47,0,0,1-1.39-4.09A.46.46,0,0,0,96.56,45.73Zm-4,9.3a3.55,3.55,0,0,0-.22-.45C91.41,53.25,90,52.32,89.15,51c-.16-.25-.52-.2-.76,0s-.18.5,0,.72a37.71,37.71,0,0,1,3.41,3.73.35.35,0,0,0,.52.12C92.49,55.44,92.56,55.31,92.54,55Zm22-6.56a.71.71,0,0,0-.39-.73c-.32-.13-.51.11-.66.37l-2,3.53c-.15.27-.37.62,0,.84s.61-.16.8-.46c.73-1.08,1.07-2.43,2.19-3.26C114.51,48.7,114.51,48.55,114.54,48.47ZM119.89,53a2.21,2.21,0,0,0-.38.19A26.17,26.17,0,0,1,116,55.7a.39.39,0,0,0-.16.61.47.47,0,0,0,.65.13,22.49,22.49,0,0,0,3.71-2.64.36.36,0,0,0,.07-.54A1.24,1.24,0,0,0,119.89,53ZM104.1,48.94a2.93,2.93,0,0,0,0,.3c.07.4-.12,1,.52,1s.42-.57.42-1a8.42,8.42,0,0,1,.64-3.29c.13-.32.28-.65-.11-.82s-.63.18-.75.53A12.52,12.52,0,0,0,104.1,48.94Zm3.58,106.66a19.84,19.84,0,0,1,2.17-.67,1,1,0,0,0,.69-1.11c-.08-.47-.59-.25-.92-.27C108.23,153.46,108.2,154.76,107.68,155.6ZM114,153a2.34,2.34,0,0,0,1.45-1.11c.18-.3.41-.65.1-1s-.61.07-.9.19c-.64.26-.74.9-1,1.43C113.53,152.72,113.63,153,114,153Z"/><path class="cls-1" d="M92.94,29.82a12.29,12.29,0,0,1,4.32-1.46,50,50,0,0,1,6.25-1.06,42.83,42.83,0,0,1,9.93,0c3.27.36,5.78,2.19,8.23,4.15a1.28,1.28,0,0,1,.26.26c.33.48,1,1,.63,1.54s-.94-.11-1.42-.26c-1.34-.41-2.73-.71-4-1.14-2.87-.94-5.83-1.43-8.73-2.17a21.16,21.16,0,0,0-7.32-.3c-1.79.18-3.59.13-5.39.38C94.84,29.89,94,30.33,92.94,29.82Z"/><path class="cls-1" d="M146.49,42.61l-.1-.09h.06a.36.36,0,0,1,0,.09Z"/><path class="cls-2" d="M97.86,78.21c-.68-.66-.55-1.63-1-2.43a29.1,29.1,0,0,0-3-4.78C91.2,67.44,91,63.64,92.71,59.51A10.58,10.58,0,0,1,97,54.66a12.28,12.28,0,0,1,6-1.85,17.24,17.24,0,0,1,4.06,0,9.79,9.79,0,0,1,5.55,3.55,13.05,13.05,0,0,1,3.21,6.38,9.16,9.16,0,0,1-2.9,8.94c-1.23,1.09-2.39,2.25-3.53,3.43A5.09,5.09,0,0,0,108.21,78a12.24,12.24,0,0,1-2.9.18l-.66-.2,0-.46c.08-2,1.43-3.46,1.88-5.29.17-.67.89-.6,1.29-.94.59-.49-.56-.82-.2-1.48a1.37,1.37,0,0,0-1.26-1.92c-.8,0-1.52-.79-2.35-.14-.11.08-.33-.2-.37-.4-.14-.73-.21-1-.86-.21-.92,1.07-1.78,1.06-2.36.3a1.6,1.6,0,0,1-.22-1c0-.21-.06-.41-.31-.44a.32.32,0,0,0-.38.36c.11.85-.56,1.1-1.09,1.42a4.56,4.56,0,0,0-.94.92.5.5,0,0,0,.09.83c1,.61,1.22,1.7,1.63,2.65.18.4.26.75.74.81A10.71,10.71,0,0,1,101,77.56c0,.58-.17.69-.66.66A6.11,6.11,0,0,0,97.86,78.21Z"/><path class="cls-3" d="M104.68,77.47l0,.46c-.64.34-.83,0-.92-.58a8.57,8.57,0,0,1,.24-2.81c.64-1.79,1.61-3.44,2.34-5.24a2.14,2.14,0,0,1-2.94,0c-.23-.2-.37-.08-.59.09-1.45,1.13-1.46,1.12-2.55-.27-.15-.18-.3-.45-.57-.33s-.2.41-.12.64a5.58,5.58,0,0,0,.3.66c1,2.22,2,4.41,2.1,6.89,0,1.35,0,1.35,1.45,1.22l1.92,0a12.24,12.24,0,0,0,2.9-.18c.59.08.65.53.67,1,.06,1.73.13,3.46.17,5.2a3,3,0,0,1-1.27,2.48,5.36,5.36,0,0,0-2.09,2.58,1.63,1.63,0,0,1-1.13,1,6.3,6.3,0,0,1-3.22.27c-.72-.14-1.33-.45-1.23-1.35.06-.52-.24-.69-.65-.86a3.89,3.89,0,0,1-2.56-3.74c-.05-1.17-.2-2.33-.28-3.49a3,3,0,0,1,1.24-2.84,6.11,6.11,0,0,1,2.52,0c.49,0,.67-.08.66-.66A10.71,10.71,0,0,0,100,72.9a29.24,29.24,0,0,0-1.34-3.35,1.25,1.25,0,1,1,2.23-1.14c.5,1.14,1,.74,1.45.09s1-.77,1.59,0a.94.94,0,0,0,1.55.11,1,1,0,0,1,1.41,0,1.17,1.17,0,0,1,.32,1.42c-.2.48-.48.93-.72,1.39C105.5,73.27,104.35,75.16,104.68,77.47Z"/><path class="cls-4" d="M72.31,106.25a14.2,14.2,0,0,1,3.94-2.93,10.91,10.91,0,0,1,4.07-1.06c1.05-.05,2.2,0,2.75,1.07a3,3,0,0,1-.48,3.19A10,10,0,0,1,73,110.09c-.87-.22-1.55-.26-2.09.59-.23.36-.56.74-1.09.4s-.25-.78-.07-1.08a2.38,2.38,0,0,0-.08-2.43c-1-2.2,0-4.26,1.78-5.77a3.73,3.73,0,0,1,1-.64c1-.39,1.39-.74.72-1.91s0-2.35.81-3.21a11.43,11.43,0,0,1,8.39-3.93,1.85,1.85,0,0,1,2,1.23,2.32,2.32,0,0,1-.68,2.54,10.19,10.19,0,0,1-5.89,2.22c-.38,0-.75-.06-.81-.53s.16-.62.59-.73a10.3,10.3,0,0,0,3.09-1c.5-.31,1-.67.83-1.32s-.88-.61-1.41-.56a4.82,4.82,0,0,0-4.27,2.88c-.45,1-.24,1.54.72,2.08.14.08.29.14.44.21.35.17.84.26.83.76s-.52.68-.93.82A13.63,13.63,0,0,0,74,102.14C72.68,103,71.71,104.86,72.31,106.25Zm3,2.26a5.76,5.76,0,0,0,4.7-2,1.63,1.63,0,0,0,.46-2c-.41-.8-1.18-.72-1.91-.59a9.06,9.06,0,0,0-3.94,2c-.59.48-1.68.87-1.4,1.75S74.7,108.45,75.32,108.51Z"/><path class="cls-2" d="M149.63,141.16a7.28,7.28,0,0,1-2.6,2.9c-2.15,1.68-4.15,3.55-6.44,5.05A69.19,69.19,0,0,1,130.14,155c-2.13.92-4.3,1.75-6.43,2.66a22.31,22.31,0,0,1-3.38.89c0-.74.74-.65,1.12-.9,3.47-2.3,6.9-4.63,10.19-7.21s6.53-5.21,10.49-6.72c1.27-.48,2.56-.92,3.85-1.36s2.44-.8,3.66-1.2Z"/><path class="cls-4" d="M108,107.51c-.66.35-1.15,1-2,1-.53,0-.61.52-.71,1a15.36,15.36,0,0,1-2.18,6,4.52,4.52,0,0,1-2.65,2c-1.16.28-2.31.33-3.12-.66a3.16,3.16,0,0,1-.26-3,6.49,6.49,0,0,1,2.82-3.65,11.63,11.63,0,0,1,2.76-1.48c1.38-.49,1.84-1.23,1.81-2.9a5.86,5.86,0,0,0-1.64,1.16,4.47,4.47,0,0,1-3,1,2.07,2.07,0,0,1-2.1-2.26,6.38,6.38,0,0,1,2.59-4.72,10,10,0,0,1,5.25-2.47,4.09,4.09,0,0,1,.6-.07c.45,0,.63.31.7.69s-.28.52-.6.56a7.42,7.42,0,0,0-4.09,1.9,8.17,8.17,0,0,0-1.66,2,1.3,1.3,0,0,0,.21,1.75c.55.55,1.13.24,1.65-.07a12.64,12.64,0,0,0,3.21-3.23c.08-.1.12-.22.2-.31.33-.38.61-.9,1.27-.47s.45.9.18,1.36a21.11,21.11,0,0,0-1.31,3.75c-.22.65-.08,1.07.74.79a1.53,1.53,0,0,1,1.29.05Zm-4.48,2A8.19,8.19,0,0,0,99.32,113a1.32,1.32,0,0,0,.3,1.84,1.36,1.36,0,0,0,1.75-.31C102.87,113.24,103.19,111.43,103.51,109.56Z"/><path class="cls-4" d="M68.14,140.44c-2.3,0-3.38-1.87-2.52-4.1a7.9,7.9,0,0,1,3.95-4,17.58,17.58,0,0,1,2.07-1,1.91,1.91,0,0,0,1.27-1.74c0-.27.16-.59-.15-.76s-.52.1-.72.29a5.2,5.2,0,0,1-2.75,1.62c-2.06.35-3.07-.37-3-2.43s1.06-4.1,2-6c.28-.55.78-.6,1.35-.3s.32.65.15,1.08a25,25,0,0,0-1.24,3.39c-.15.69-.25,1.41.43,1.86a1.71,1.71,0,0,0,2.13-.2,16.78,16.78,0,0,0,3.1-3.52c.31-.4.55-.8,1.16-.58s.46.74.38,1.2a23.15,23.15,0,0,1-1,3.36c-.39,1.13-.31,1.26.88,1.42.25,0,.5,0,.56.33s-.12.54-.46.56c-1.8.11-2.08,1.47-2.33,2.84a10.08,10.08,0,0,1-2.55,5.38A3.28,3.28,0,0,1,68.14,140.44Zm-.47-3.77a1.21,1.21,0,0,0,.67,1.19,1.4,1.4,0,0,0,1.65-.41,8.51,8.51,0,0,0,2.12-4.53c.15-.76-.47-.51-.77-.31a12.3,12.3,0,0,0-2.59,1.95A3.56,3.56,0,0,0,67.67,136.67Z"/><path class="cls-4" d="M154,131.91c-.54,2.09-.81,4.27-2.09,6.13-1.09,1.58-2.34,2.74-4.47,2.37a1.94,1.94,0,0,1-1.83-1.89,5.33,5.33,0,0,1,2.47-5.16,9.94,9.94,0,0,1,3.05-1.69,2.87,2.87,0,0,0,2.16-2.71c0-.23.17-.51-.13-.63s-.42.16-.57.35a5.25,5.25,0,0,1-2.55,1.9c-2.83.84-4.18-.39-3.55-3.27a24.35,24.35,0,0,1,2-4.92c.26-.55.65-.61,1.2-.42s.59.62.46,1.14a2.39,2.39,0,0,1-.43.84,5.05,5.05,0,0,0-1,3.28c0,1.32,1.06,1.79,2.18,1.11a12.68,12.68,0,0,0,3.47-3.57c.31-.42.58-1,1.22-.69s.47.89.34,1.38c-.32,1.16-.73,2.3-1,3.46-.11.41-.37.82-.19,1.28,1.73-.26,1.73-.26,1.5.5C155.36,131.09,154.47,131.15,154,131.91Zm-1.72.46a8.59,8.59,0,0,0-4.16,3.21,1.49,1.49,0,0,0,.24,2.16c.75.6,1.37,0,1.9-.45C151.6,136,151.92,134.19,152.24,132.37Z"/><path class="cls-3" d="M137.78,126.23a26.78,26.78,0,0,1,2.43-2.67,5.72,5.72,0,0,1,2.47-1.21,1.84,1.84,0,0,1,2.21,2.55,4.07,4.07,0,0,1-2.52,2.28c-.84.4-1.23.78-.62,1.7s1.28,1.2,2.19.62c.2-.12.38-.29.58-.42s.54,0,.74.18.18.37.05.63c-1.18,2.41-3.6,2.63-5.11.45-.16-.23-.32-.47-.46-.71-.86-1.57-.68-2.09.95-2.76a4.23,4.23,0,0,0,1.67-.93c.36-.38.58-.79.21-1.29s-.75-.4-1.19-.22a5,5,0,0,0-2,1.55,21.13,21.13,0,0,0-2.64,4.59c-.22.49-.27,1.14-1.23.82s-.89-.82-.67-1.53c.94-3.07,2.09-6.07,3.26-9.07a55.29,55.29,0,0,1,3-6.73c.17-.33.26-.78.8-.77.88,0,1.11.47.63,1.35a57,57,0,0,0-4.59,11C137.9,125.8,137.86,125.94,137.78,126.23Z"/><path class="cls-4" d="M132.79,102.27c.72-.77,1.38-1.44,2-2.15a3.47,3.47,0,0,1,3.2-1c.66.06.94.51,1,1.16a6.38,6.38,0,0,1-.78,3.13,21.46,21.46,0,0,1-.84,2.24.63.63,0,0,0,.13.78.7.7,0,0,0,.89.08c.34-.17.68-.6,1,0s-.09.82-.42,1.14a3.24,3.24,0,0,1-1.09.74c-1.72.63-2.71-.15-2.48-2a17.4,17.4,0,0,1,1-3.22c.15-.49.46-1-.11-1.43s-1,0-1.47.44a15.07,15.07,0,0,0-3.28,4.55c-.26.49-.31,1.25-1.18,1.15s-1.22-.62-1-1.58c.51-1.86,1-3.74,1.7-5.53a108.93,108.93,0,0,1,4.41-10c.39-.76.77-.85,1.38-.55s.34.9.11,1.34a64.41,64.41,0,0,0-4.21,9.59A1.23,1.23,0,0,0,132.79,102.27Z"/><path class="cls-3" d="M56,126.64a36,36,0,0,1,3.46-5.33,21.84,21.84,0,0,1,5.07-4.62c.4-.25.75-.46,1.12.08a.73.73,0,0,1-.18,1.19,33.1,33.1,0,0,0-9.57,12.56c-.24.53-.4,1.17-1.18,1.22s-1.44-.3-1.45-1.2a28.15,28.15,0,0,1,.14-2.9A28.79,28.79,0,0,0,52.53,117c-.13-.47-.46-1,.43-1.15.64-.1,1.3-.55,1.67.46a21.16,21.16,0,0,1,1,6.41c.05,1.28,0,2.56,0,3.84Z"/><path class="cls-4" d="M106.39,125.81a4.92,4.92,0,0,0,1.47-1.4,6,6,0,0,1,2.93-1.81,1.88,1.88,0,0,1,2.53,2,8.19,8.19,0,0,1-4.28,7,3.19,3.19,0,0,1-2,.36c-.38,0-.93.08-.9-.51a.93.93,0,0,1,.81-.91,4.62,4.62,0,0,0,4.07-4.21,1.37,1.37,0,0,0-.4-1.43,1.19,1.19,0,0,0-1.37,0c-1.55.78-2.37,2.23-3.23,3.63a15.65,15.65,0,0,0-.9,1.84c-.22.52-.51.81-1.11.56s-.92-.46-.73-1.24a63.37,63.37,0,0,1,3.35-9.81c.8-1.9,1.72-3.73,2.66-5.56.29-.57.58-.93,1.3-.56s.34.87.12,1.29a90,90,0,0,0-4.08,9.41A1.94,1.94,0,0,0,106.39,125.81Z"/><path class="cls-4" d="M129.78,124.41l-.53.25a2.4,2.4,0,0,0-1.4,1.25,41.17,41.17,0,0,0-2.74,5.22.85.85,0,0,1-1.06.52.81.81,0,0,1-.8-.88,1.93,1.93,0,0,1,0-.24,31.85,31.85,0,0,1,2.49-8.38c.17-.36.34-.86,1-.59s.49.69.37,1.19c-.23,1-.86,1.81-.7,2.93.67-.2.91-.74,1.24-1.17a6.89,6.89,0,0,1,3.26-2.39c1.47-.47,2.4.35,2.29,1.88a12.09,12.09,0,0,1-1.34,3.72c-.21.51-.67,1-.1,1.52s.88-.12,1.26-.35.74-.5,1.1-.19,0,.73-.24,1a4.51,4.51,0,0,1-2,1.68,1.76,1.76,0,0,1-2-.28,1.69,1.69,0,0,1-.43-1.88c.11-.39.28-.76.42-1.13l.19-.28.33-.73c.36-.79,1.12-1.53.29-2.47l-.07-.08C130.37,124.15,130.11,124.11,129.78,124.41Z"/><path class="cls-3" d="M89.12,101.79c.61-.64,1.19-1.31,1.83-1.92a4.33,4.33,0,0,1,2-1.13c1.66-.42,2.5.32,2.26,2a9.31,9.31,0,0,1-.88,2.36c-.27.63-.56,1.25-.78,1.9a.75.75,0,0,0,.29,1,.76.76,0,0,0,.89-.14l.2-.15c.4-.24.74-1,1.27-.38.33.41-.22.85-.49,1.2a4.35,4.35,0,0,1-1.7,1.33,1.86,1.86,0,0,1-2-.14,1.68,1.68,0,0,1-.44-2c.29-.94.82-1.75,1.16-2.65.24-.65.78-1.42,0-2s-1.54,0-2.09.62a17.56,17.56,0,0,0-3.26,5.61c-.39.94-.87.93-1.62.59a.58.58,0,0,1-.42-.74,40,40,0,0,1,2.47-8.3c.07-.15.16-.28.23-.43.22-.47.54-.32.9-.2s.39.38.3.74a16,16,0,0,0-.78,2.78,4.51,4.51,0,0,0-.51,2Z"/><path class="cls-3" d="M117.1,131.53c-2.53,0-3.69-1.73-3-4.09a8.6,8.6,0,0,1,7-5.38c1.6-.06,2.31,1,1.61,2.43a5.72,5.72,0,0,1-2,2.08,16.39,16.39,0,0,1-3.55,1.78c-.72.28-.62.59-.1,1a1.45,1.45,0,0,0,1.35.3c.46-.16.9-.35,1.35-.51s1.09-1,1.53-.23c.33.58-.48,1-.92,1.33A5.66,5.66,0,0,1,117.1,131.53Zm-.56-3.89c.66-.32,1.27-.58,1.85-.89a6.09,6.09,0,0,0,2.27-1.75c.26-.35.52-.75.14-1.2a.92.92,0,0,0-1.1-.19A5.4,5.4,0,0,0,116.54,127.64Z"/><path class="cls-3" d="M96.73,131.53a2.59,2.59,0,0,1-2.82-2.86,3.83,3.83,0,0,1,.43-1.86,8.55,8.55,0,0,1,6.33-4.7c.76-.13,1.59-.17,2,.61a2,2,0,0,1-.33,2.25,6.13,6.13,0,0,1-2.16,1.89c-.84.47-1.74.83-2.58,1.32-.35.2-1.17.08-.93.77a1.31,1.31,0,0,0,1.52.72,5.62,5.62,0,0,0,2-.83c.36-.21.74-.45,1.06,0s-.18.63-.39.86A5.7,5.7,0,0,1,96.73,131.53Zm-.39-3.89a10.66,10.66,0,0,0,4-2.33c.39-.38.85-.86.41-1.47s-1-.33-1.51-.06A5.93,5.93,0,0,0,96.34,127.64Z"/><path class="cls-3" d="M82.11,122c.78,0,1.33,0,1.88,0s.79.27.76.84-.4.46-.75.48c-2.76.16-2.77.16-3.6,2.79-.16.53-.28,1.09-.39,1.64a1.28,1.28,0,0,0,.48,1.4,1.25,1.25,0,0,0,1.47,0,2.8,2.8,0,0,0,.41-.25.54.54,0,0,1,.84.12c.22.27.12.51-.07.75a4,4,0,0,1-3,1.68,1.84,1.84,0,0,1-2.06-2,15.86,15.86,0,0,1,1.32-5.36c-.57-.31-1,.09-1.53.13-.31,0-.69.42-.87-.2a.69.69,0,0,1,.54-1,5.51,5.51,0,0,1,1.16-.3,2.31,2.31,0,0,0,2.11-1.65c.54-1.21,1.22-2.36,1.8-3.55.3-.6.67-.54,1.18-.32.69.3.21.67.08,1C83.38,119.41,82.79,120.6,82.11,122Z"/><path class="cls-3" d="M108,107.51l-.06-.25a5.45,5.45,0,0,1,.37-3.43,91.55,91.55,0,0,1,6-14.11c.25-.47.4-1,1.14-.57s.36.83.15,1.27a98.89,98.89,0,0,0-5.24,11.94,10.07,10.07,0,0,0-.64,3.07c0,.41,0,.84.44,1s.76,0,1.11-.27.42-.88.93-.4-.12.78-.31,1.12a3.91,3.91,0,0,1-.68.85C110.05,108.94,109,108.84,108,107.51Z"/><path class="cls-4" d="M88.93,124.75a7,7,0,0,0,1.45-1.34c.8-.75,2-1,2.63-.57a2.16,2.16,0,0,1,.3,2.67,7.77,7.77,0,0,1-.69,1.13c-.2.29-.41.67-.85.54s-.44-.52-.42-.9c0-.12,0-.24,0-.36,0-.28.06-.58-.25-.74s-.61,0-.86.25a9.26,9.26,0,0,0-2.14,3.31c-.35.73-.68,1.46-1,2.19a.71.71,0,0,1-1.07.41c-.52-.22-.88-.47-.77-1.16a6.67,6.67,0,0,1,.86-1.83,11.29,11.29,0,0,0,1.08-5.25c0-.91.5-1.17,1.19-1.14s.51.75.57,1.21S88.64,124.09,88.93,124.75Z"/><path class="cls-3" d="M127.51,98.06c.37,0,.7,0,1,0s.83,0,.79.65-.37.6-.82.61a7.28,7.28,0,0,0-1.55.15c-1.21.29-1.54,1.06-1,2.16.44.86,1,1.68,1.36,2.55a2.51,2.51,0,0,1-1.24,3.44,3.75,3.75,0,0,1-4.88-1.31c-.18-.27-.57-.57-.11-.92s.78-.59,1.26-.09a8.24,8.24,0,0,0,1,.86,1.17,1.17,0,0,0,1.55.08,1.24,1.24,0,0,0,.46-1.6,11.75,11.75,0,0,0-1.11-2c-1.59-2.27-1-4.26,2.33-4.58Z"/><path class="cls-4" d="M116,108.11c-.62-.06-.87-.73-1-1.48a7.54,7.54,0,0,1,.44-3.43c.46-1.28,1.08-2.5,1.62-3.74.23-.53.51-.74,1.12-.45s.52.75.29,1.18a21.32,21.32,0,0,0-1.44,3.7,6.3,6.3,0,0,0-.21,1,.94.94,0,0,0,.37,1c.36.24.67,0,1-.24.49-.31,1-1.28,1.55-.55s-.44,1.08-.78,1.54A3.57,3.57,0,0,1,116,108.11Z"/><path class="cls-2" d="M132,142.54c0,1.22-.67,1.77-2,1.75a1.93,1.93,0,0,1-1.78-1.74,2.16,2.16,0,0,1,2.1-2.05A1.81,1.81,0,0,1,132,142.54Z"/><path class="cls-4" d="M118.2,96.48c0-1,.37-1.52,1.22-1.56a1.36,1.36,0,0,1,1.52,1.33,1.67,1.67,0,0,1-1.33,1.46A1.2,1.2,0,0,1,118.2,96.48Z"/><path class="cls-3" d="M96.56,45.73a.46.46,0,0,1,.51.45,17.47,17.47,0,0,0,1.39,4.09,2.22,2.22,0,0,1,.13.58.46.46,0,0,1-.32.57.4.4,0,0,1-.54-.33c-.38-1.56-1.29-2.94-1.54-4.55C96.13,46.16,96.06,45.8,96.56,45.73Z"/><path class="cls-3" d="M92.54,55c0,.28-.05.41-.2.5a.35.35,0,0,1-.52-.12,37.71,37.71,0,0,0-3.41-3.73c-.2-.22-.34-.49,0-.72s.6-.24.76,0c.89,1.35,2.26,2.28,3.17,3.61A3.55,3.55,0,0,1,92.54,55Z"/><path class="cls-3" d="M114.54,48.47c0,.08,0,.23-.11.29-1.12.83-1.46,2.18-2.19,3.26-.19.3-.34.74-.8.46s-.15-.57,0-.84l2-3.53c.15-.26.34-.5.66-.37A.71.71,0,0,1,114.54,48.47Z"/><path class="cls-3" d="M119.89,53a1.24,1.24,0,0,1,.35.23.36.36,0,0,1-.07.54,22.49,22.49,0,0,1-3.71,2.64.47.47,0,0,1-.65-.13.39.39,0,0,1,.16-.61,26.17,26.17,0,0,0,3.54-2.48A2.21,2.21,0,0,1,119.89,53Z"/><path class="cls-3" d="M104.1,48.94a12.52,12.52,0,0,1,.72-3.23c.12-.35.3-.72.75-.53s.24.5.11.82a8.42,8.42,0,0,0-.64,3.29c0,.4.1,1-.42,1s-.45-.62-.52-1A2.93,2.93,0,0,1,104.1,48.94Z"/><path class="cls-2" d="M107.68,155.6c.52-.84.55-2.14,1.94-2,.33,0,.84-.2.92.27a1,1,0,0,1-.69,1.11A19.84,19.84,0,0,0,107.68,155.6Z"/><path class="cls-2" d="M114,153c-.36,0-.46-.25-.34-.48.25-.53.35-1.17,1-1.43.29-.12.51-.63.9-.19s.08.69-.1,1A2.34,2.34,0,0,1,114,153Z"/><path class="cls-2" d="M154,131.91c.51-.76,1.4-.82,2.12-1.21C155.74,132.19,155.45,132.36,154,131.91Z"/><path class="cls-2" d="M130.64,124.64c.83.94.07,1.68-.29,2.47a.51.51,0,0,1-.19-.8C130.58,125.81,130.48,125.2,130.64,124.64Z"/><path class="cls-2" d="M89.12,101.79l-1.25,1.95a4.51,4.51,0,0,1,.51-2A.91.91,0,0,0,89.12,101.79Z"/><path class="cls-2" d="M127.85,125.91a2.4,2.4,0,0,1,1.4-1.25C129.33,125.69,128.67,125.88,127.85,125.91Z"/><path class="cls-2" d="M129.78,124.41c.33-.3.59-.26.79.15C130.27,124.68,130,124.73,129.78,124.41Z"/><path class="cls-2" d="M149.64,141.16l.24-.17c.06.26-.17.1-.25.17Z"/><path class="cls-2" d="M130,127.84l-.19.28Z"/><path class="cls-1" d="M104.68,77.47c-.33-2.31.82-4.2,1.78-6.13.24-.46.52-.91.72-1.39a1.17,1.17,0,0,0-.32-1.42,1,1,0,0,0-1.41,0,.94.94,0,0,1-1.55-.11c-.61-.73-1.05-.67-1.59,0s-1,1-1.45-.09a1.25,1.25,0,1,0-2.23,1.14A29.24,29.24,0,0,1,100,72.9c-.48-.06-.56-.41-.74-.81-.41-1-.65-2-1.63-2.65a.5.5,0,0,1-.09-.83,4.56,4.56,0,0,1,.94-.92c.53-.32,1.2-.57,1.09-1.42a.32.32,0,0,1,.38-.36c.25,0,.3.23.31.44a1.6,1.6,0,0,0,.22,1c.58.76,1.44.77,2.36-.3.65-.75.72-.52.86.21,0,.2.26.48.37.4.83-.65,1.55.19,2.35.14a1.37,1.37,0,0,1,1.26,1.92c-.36.66.79,1,.2,1.48-.4.34-1.12.27-1.29.94C106.11,74,104.76,75.51,104.68,77.47Z"/><path class="cls-1" d="M104,74.54a8.57,8.57,0,0,0-.24,2.81c.09.57.28.92.92.58l.66.2-1.92,0C103.49,76.94,103.08,75.63,104,74.54Z"/><path class="cls-2" d="M104,74.54c-.89,1.09-.48,2.4-.58,3.62-1.42.13-1.4.13-1.45-1.22-.11-2.48-1.15-4.67-2.1-6.89a5.58,5.58,0,0,1-.3-.66c-.08-.23-.13-.52.12-.64s.42.15.57.33c1.09,1.39,1.1,1.4,2.55.27.22-.17.36-.29.59-.09a2.14,2.14,0,0,0,2.94,0C105.58,71.1,104.61,72.75,104,74.54Z"/><path class="cls-1" d="M75.32,108.51c-.62-.06-1.77.17-2.09-.81s.81-1.27,1.4-1.75a9.06,9.06,0,0,1,3.94-2c.73-.13,1.5-.21,1.91.59a1.63,1.63,0,0,1-.46,2A5.76,5.76,0,0,1,75.32,108.51Z"/><path class="cls-1" d="M103.51,109.56c-.32,1.87-.64,3.68-2.14,5a1.36,1.36,0,0,1-1.75.31,1.32,1.32,0,0,1-.3-1.84A8.19,8.19,0,0,1,103.51,109.56Z"/><path class="cls-1" d="M67.67,136.67a3.56,3.56,0,0,1,1.08-2.11,12.3,12.3,0,0,1,2.59-1.95c.3-.2.92-.45.77.31A8.51,8.51,0,0,1,70,137.45a1.4,1.4,0,0,1-1.65.41A1.21,1.21,0,0,1,67.67,136.67Z"/><path class="cls-1" d="M152.24,132.37c-.32,1.82-.64,3.6-2,4.92-.53.5-1.15,1.05-1.9.45a1.49,1.49,0,0,1-.24-2.16A8.59,8.59,0,0,1,152.24,132.37Z"/><path class="cls-1" d="M116.54,127.64a5.4,5.4,0,0,1,3.16-4,.92.92,0,0,1,1.1.19c.38.45.12.85-.14,1.2a6.09,6.09,0,0,1-2.27,1.75C117.81,127.06,117.2,127.32,116.54,127.64Z"/><path class="cls-1" d="M96.34,127.64a5.93,5.93,0,0,1,2.92-3.86c.47-.27,1.06-.57,1.51.06s0,1.09-.41,1.47A10.66,10.66,0,0,1,96.34,127.64Z"/></g></g></svg>